<?xml version="1.0" standalone="no"?>
<!DOCTYPE svg PUBLIC "-//W3C//DTD SVG 20010904//EN"
 "http://www.w3.org/TR/2001/REC-SVG-20010904/DTD/svg10.dtd">
<svg version="1.0" xmlns="http://www.w3.org/2000/svg"
 width="164.000000pt" height="164.000000pt" viewBox="0 0 164.000000 164.000000"
 preserveAspectRatio="xMidYMid meet">
<metadata>
Created by potrace 1.11, written by Peter Selinger 2001-2013
</metadata>
<g transform="translate(0.000000,164.000000) scale(0.100000,-0.100000)"
fill="#000000" stroke="none">
<path d="M310 1152 c-14 -2 -32 -5 -40 -8 -8 -3 -16 -5 -18 -4 -1 0 -17 -7
-35 -16 -89 -46 -154 -123 -181 -217 -21 -71 -20 -111 3 -180 36 -112 117
-194 220 -224 49 -14 124 -16 576 -15 567 0 565 0 644 59 67 49 101 94 126
168 17 50 26 132 16 150 -2 5 -6 19 -7 30 -9 82 -110 200 -203 237 -55 21 -69
21 -566 22 -280 1 -521 0 -535 -2z m337 -201 c59 -16 103 -69 103 -124 0 -54
-17 -114 -38 -135 -15 -15 -40 -17 -182 -16 -174 2 -231 11 -273 45 -37 28
-53 88 -39 137 25 81 93 108 267 106 66 0 139 -6 162 -13z m663 4 c105 -23
152 -108 108 -197 -13 -27 -31 -43 -66 -59 -42 -20 -64 -22 -224 -22 -120 0
-181 3 -191 11 -19 16 -39 88 -39 135 1 64 38 108 109 130 45 13 245 15 303 2z"/>
</g>
</svg>
